<svg width="11" height="12" viewBox="0 0 11 12" fill="none" xmlns="http://www.w3.org/2000/svg">
<path fill-rule="evenodd" clip-rule="evenodd" d="M5 8.6C6.98822 8.6 8.6 6.98822 8.6 5C8.6 3.01177 6.98822 1.4 5 1.4C3.01177 1.4 1.4 3.01177 1.4 5C1.4 6.98822 3.01177 8.6 5 8.6ZM5 10C7.76142 10 10 7.76142 10 5C10 2.23858 7.76142 0 5 0C2.23858 0 0 2.23858 0 5C0 7.76142 2.23858 10 5 10Z" fill="#2B3674"/>
<path fill-rule="evenodd" clip-rule="evenodd" d="M10.5052 11.495C10.2319 11.7683 9.78865 11.7683 9.51528 11.495L7.50523 9.4849C7.23186 9.21154 7.23186 8.76832 7.50523 8.49495C7.7786 8.22159 8.22181 8.22159 8.49518 8.49495L10.5052 10.505C10.7786 10.7784 10.7786 11.2216 10.5052 11.495Z" fill="#2B3674"/>
</svg>
